<svg xmlns="http://www.w3.org/2000/svg" xmlns:xlink="http://www.w3.org/1999/xlink" width="540" height="485"><defs><filter id="prefix__a" width="131.1%" height="134.6%" x="-15.6%" y="-12.4%" filterUnits="objectBoundingBox"><feOffset dy="24" in="SourceAlpha" result="shadowOffsetOuter1"/><feGaussianBlur in="shadowOffsetOuter1" result="shadowBlurOuter1" stdDeviation="24"/><feColorMatrix in="shadowBlurOuter1" values="0 0 0 0 0 0 0 0 0 0.68627451 0 0 0 0 0.8 0 0 0 0.24 0"/></filter><filter id="prefix__d" width="114.6%" height="114.4%" x="-7.3%" y="-5.2%" filterUnits="objectBoundingBox"><feOffset dy="8" in="SourceAlpha" result="shadowOffsetOuter1"/><feGaussianBlur in="shadowOffsetOuter1" result="shadowBlurOuter1" stdDeviation="8"/><feColorMatrix in="shadowBlurOuter1" values="0 0 0 0 0 0 0 0 0 0.68627451 0 0 0 0 0.8 0 0 0 0.2 0"/></filter><filter id="prefix__f" width="102.5%" height="101.9%" x="-1.3%" y="-.5%" filterUnits="objectBoundingBox"><feOffset dy="2" in="SourceAlpha" result="shadowOffsetOuter1"/><feGaussianBlur in="shadowOffsetOuter1" result="shadowBlurOuter1" stdDeviation=".5"/><feColorMatrix in="shadowBlurOuter1" values="0 0 0 0 0.823529412 0 0 0 0 0.854901961 0 0 0 0 0.858823529 0 0 0 0.6 0"/></filter><filter id="prefix__h" width="103.9%" height="107.9%" x="-2%" y="-2%" filterUnits="objectBoundingBox"><feOffset dy="2" in="SourceAlpha" result="shadowOffsetOuter1"/><feGaussianBlur in="shadowOffsetOuter1" result="shadowBlurOuter1" stdDeviation=".5"/><feColorMatrix in="shadowBlurOuter1" values="0 0 0 0 0.823529412 0 0 0 0 0.854901961 0 0 0 0 0.858823529 0 0 0 0.6 0"/></filter><filter id="prefix__j" width="103.9%" height="111.2%" x="-2%" y="-2.8%" filterUnits="objectBoundingBox"><feOffset dy="2" in="SourceAlpha" result="shadowOffsetOuter1"/><feGaussianBlur in="shadowOffsetOuter1" result="shadowBlurOuter1" stdDeviation=".5"/><feColorMatrix in="shadowBlurOuter1" values="0 0 0 0 0.823529412 0 0 0 0 0.854901961 0 0 0 0 0.858823529 0 0 0 0.6 0"/></filter><filter id="prefix__l" width="103.9%" height="111.2%" x="-2%" y="-2.8%" filterUnits="objectBoundingBox"><feOffset dy="2" in="SourceAlpha" result="shadowOffsetOuter1"/><feGaussianBlur in="shadowOffsetOuter1" result="shadowBlurOuter1" stdDeviation=".5"/><feColorMatrix in="shadowBlurOuter1" values="0 0 0 0 0.823529412 0 0 0 0 0.854901961 0 0 0 0 0.858823529 0 0 0 0.6 0"/></filter><filter id="prefix__n" width="215.4%" height="114.4%" x="-57.7%" y="-5.2%" filterUnits="objectBoundingBox"><feOffset dy="8" in="SourceAlpha" result="shadowOffsetOuter1"/><feGaussianBlur in="shadowOffsetOuter1" result="shadowBlurOuter1" stdDeviation="8"/><feColorMatrix in="shadowBlurOuter1" values="0 0 0 0 0 0 0 0 0 0.68627451 0 0 0 0 0.8 0 0 0 0.2 0"/></filter><path id="prefix__b" d="M4.854 0h530.292A4.852 4.852 0 01540 4.85v475.3a4.852 4.852 0 01-4.854 4.85H4.854A4.852 4.852 0 010 480.15V4.85A4.852 4.852 0 014.854 0z"/><path id="prefix__e" d="M111.64 48.5h374.967a4.852 4.852 0 014.854 4.85v378.3a4.852 4.852 0 01-4.854 4.85H111.64a4.851 4.851 0 01-4.853-4.85V53.35a4.851 4.851 0 014.853-4.85z"/><path id="prefix__g" d="M131.056 98.213h188.79a4.851 4.851 0 014.854 4.85v298.274c0 2.68-2.173 4.85-4.854 4.85h-188.79a4.852 4.852 0 01-4.854-4.85V103.063c0-2.68 2.173-4.85 4.854-4.85z"/><path id="prefix__i" d="M349.483 98.213h117.708c2.68 0 4.854 2.917 4.854 6.517v62.595c0 3.6-2.173 6.517-4.854 6.517H349.483c-2.68 0-4.854-2.918-4.854-6.517V104.73c0-3.6 2.173-6.517 4.854-6.517z"/><path id="prefix__k" d="M349.483 183.088h117.708c2.68 0 4.854 2.917 4.854 6.517v40.77c0 3.6-2.173 6.517-4.854 6.517H349.483c-2.68 0-4.854-2.918-4.854-6.517v-40.77c0-3.6 2.173-6.517 4.854-6.517z"/><path id="prefix__m" d="M349.483 246.137h117.708c2.68 0 4.854 2.918 4.854 6.518v40.77c0 3.6-2.173 6.517-4.854 6.517H349.483c-2.68 0-4.854-2.918-4.854-6.517v-40.77c0-3.6 2.173-6.518 4.854-6.518z"/><path id="prefix__o" d="M53.393 48.5h38.832a4.852 4.852 0 014.854 4.85v378.3a4.852 4.852 0 01-4.854 4.85H53.393a4.852 4.852 0 01-4.854-4.85V53.35a4.852 4.852 0 014.854-4.85z"/><linearGradient id="prefix__c" x1="50%" x2="50%" y1="0%" y2="100%"><stop offset="0%" stop-color="#B1E6EF"/><stop offset="100%" stop-color="#00AFCC"/></linearGradient></defs><g fill="none" fill-rule="evenodd"><use fill="#000" filter="url(#prefix__a)" xlink:href="#prefix__b"/><use fill="url(#prefix__c)" xlink:href="#prefix__b"/><use fill="#000" filter="url(#prefix__d)" xlink:href="#prefix__e"/><use fill="#F7F9F9" xlink:href="#prefix__e"/><use fill="#000" filter="url(#prefix__f)" xlink:href="#prefix__g"/><use fill="#FFF" xlink:href="#prefix__g"/><path fill="#032128" fill-rule="nonzero" d="M143.91 127.313v-6.955h.029l4.324 6.954h2.287v-10.388h-2.141v6.97h-.03l-4.339-6.97h-2.271v10.388h2.14zm11.91.189c.855 0 1.583-.194 2.185-.582.602-.388 1.049-1.033 1.34-1.936h-1.82c-.068.233-.253.454-.554.663-.3.208-.66.312-1.077.312-.583 0-1.03-.15-1.34-.45-.31-.301-.48-.786-.51-1.456h5.432a5.296 5.296 0 00-.146-1.673 4.095 4.095 0 00-.662-1.426 3.347 3.347 0 00-1.172-.997c-.476-.247-1.034-.37-1.675-.37-.573 0-1.095.101-1.565.305a3.698 3.698 0 00-1.216.837 3.69 3.69 0 00-.787 1.258 4.395 4.395 0 00-.276 1.572c0 .582.09 1.115.269 1.6.18.485.434.902.765 1.251.33.35.732.619 1.208.808.476.19 1.01.284 1.602.284zm1.588-4.758h-3.364c.01-.146.042-.31.095-.495a1.518 1.518 0 01.801-.938c.218-.112.493-.168.823-.168.505 0 .88.136 1.128.408.248.271.42.669.517 1.193zm7.12 4.569l1.282-5.05h.03l1.34 5.05h2.125l2.374-7.523h-2.126l-1.384 5.093h-.029l-1.281-5.093h-2.01l-1.252 5.107h-.03l-1.383-5.107H160l2.388 7.522h2.14zm15.728.189a4.47 4.47 0 001.609-.277 3.42 3.42 0 001.23-.793c.34-.344.602-.759.787-1.244a4.565 4.565 0 00.276-1.63c0-.6-.092-1.146-.276-1.636a3.536 3.536 0 00-.787-1.252 3.53 3.53 0 00-1.23-.8 4.363 4.363 0 00-1.61-.284c-.592 0-1.125.095-1.601.284a3.53 3.53 0 00-1.223.8c-.34.345-.602.762-.787 1.252a4.624 4.624 0 00-.276 1.637c0 .601.092 1.144.276 1.63.185.484.447.899.787 1.243.34.345.747.609 1.223.793.476.184 1.01.277 1.602.277zm0-1.543c-.35 0-.641-.068-.874-.203a1.583 1.583 0 01-.56-.546 2.358 2.358 0 01-.3-.771 4.497 4.497 0 01.001-1.768c.058-.291.158-.548.298-.771a1.69 1.69 0 01.56-.546c.234-.14.525-.21.875-.21s.643.07.88.21c.238.14.428.323.569.546.14.223.24.48.298.771a4.532 4.532 0 010 1.768 2.356 2.356 0 01-.298.771c-.141.228-.33.41-.568.546-.238.135-.532.203-.881.203zm7.31 1.353v-3.39c0-.34.034-.654.102-.945.068-.291.182-.546.342-.764.16-.219.371-.39.633-.517.262-.126.583-.189.961-.189.127 0 .258.007.393.022.136.014.253.031.35.05v-1.92a1.636 1.636 0 00-.451-.073c-.263 0-.515.04-.758.117-.242.077-.47.187-.684.327-.214.14-.403.31-.568.51a2.518 2.518 0 00-.393.647h-.03v-1.397h-1.965v7.522h2.068zm6.654.19c.496 0 .94-.09 1.333-.27.393-.179.71-.472.954-.88h.029v.96h1.966v-10.388h-2.068v3.783h-.03a2.208 2.208 0 00-.953-.837 2.966 2.966 0 00-1.274-.284c-.554 0-1.039.11-1.456.328a3.119 3.119 0 00-1.042.866 3.802 3.802 0 00-.626 1.244c-.14.47-.21.957-.21 1.462 0 .524.07 1.028.21 1.513.141.485.35.914.626 1.288.277.373.629.669 1.056.887.427.219.922.328 1.485.328zm.51-1.543c-.32 0-.595-.07-.823-.21a1.83 1.83 0 01-.568-.554 2.36 2.36 0 01-.327-.778 3.819 3.819 0 01-.102-.873c0-.31.031-.609.094-.895.064-.286.166-.54.306-.764.141-.223.328-.402.56-.538.234-.136.52-.204.86-.204.34 0 .621.068.845.204.223.136.405.313.546.531.14.218.24.47.298.757a4.617 4.617 0 010 1.797c-.058.29-.155.55-.291.778-.136.228-.318.41-.546.546-.228.135-.512.203-.852.203zm8.81 1.543c.854 0 1.582-.194 2.184-.582.602-.388 1.049-1.033 1.34-1.936h-1.82c-.068.233-.253.454-.554.663-.3.208-.66.312-1.077.312-.583 0-1.03-.15-1.34-.45-.31-.301-.48-.786-.51-1.456h5.432a5.296 5.296 0 00-.146-1.673 4.095 4.095 0 00-.662-1.426 3.347 3.347 0 00-1.172-.997c-.476-.247-1.034-.37-1.675-.37-.573 0-1.095.101-1.565.305a3.698 3.698 0 00-1.216.837 3.69 3.69 0 00-.787 1.258 4.395 4.395 0 00-.276 1.572c0 .582.09 1.115.269 1.6.18.485.434.902.765 1.251.33.35.732.619 1.208.808.476.19 1.01.284 1.602.284zm1.587-4.758h-3.364c.01-.146.042-.31.095-.495a1.518 1.518 0 01.801-.938c.218-.112.493-.168.823-.168.505 0 .88.136 1.128.408.248.271.42.669.517 1.193zm5.359 4.569v-3.39c0-.34.034-.655.102-.946.068-.291.182-.546.342-.764.16-.219.371-.39.634-.517.262-.126.582-.189.96-.189.127 0 .258.007.394.022.136.014.252.031.35.05v-1.92a1.642 1.642 0 00-.452-.073c-.262 0-.515.04-.757.117a2.782 2.782 0 00-.685.327c-.213.14-.403.31-.568.51a2.518 2.518 0 00-.393.647h-.029v-1.397h-1.966v7.522h2.068z"/><use fill="#000" filter="url(#prefix__h)" xlink:href="#prefix__i"/><use fill="#FFF" xlink:href="#prefix__i"/><use fill="#000" filter="url(#prefix__j)" xlink:href="#prefix__k"/><use fill="#FFF" xlink:href="#prefix__k"/><use fill="#000" filter="url(#prefix__l)" xlink:href="#prefix__m"/><use fill="#FFF" xlink:href="#prefix__m"/><path fill="#DBE1E2" d="M385.888 153.638c.67 0 1.213.543 1.213 1.213v2.425c0 .67-.543 1.212-1.213 1.212h-25.484c-.67 0-1.213-.543-1.213-1.212v-2.425c0-.67.543-1.213 1.213-1.213h25.484zm21.842 0c.67 0 1.214.543 1.214 1.213v2.425c0 .67-.543 1.212-1.214 1.212h-15.775c-.67 0-1.213-.543-1.213-1.212v-2.425c0-.67.543-1.213 1.213-1.213h15.775zm23.057-9.7c.67 0 1.213.543 1.213 1.213v2.425c0 .67-.543 1.212-1.213 1.212h-70.383c-.67 0-1.213-.543-1.213-1.212v-2.425c0-.67.543-1.213 1.213-1.213h70.383zm25.483-9.7c.67 0 1.213.543 1.213 1.213v2.425c0 .67-.543 1.212-1.213 1.212h-95.866c-.67 0-1.213-.543-1.213-1.212v-2.425c0-.67.543-1.213 1.213-1.213h95.866zm-70.382 82.799c.67 0 1.213.543 1.213 1.213v2.425c0 .67-.543 1.212-1.213 1.212h-25.484c-.67 0-1.213-.542-1.213-1.212v-2.425c0-.67.543-1.213 1.213-1.213h25.484zm36.195 0c.67 0 1.213.543 1.213 1.213v2.425c0 .67-.543 1.212-1.213 1.212h-30.128c-.67 0-1.213-.542-1.213-1.212v-2.425c0-.67.543-1.213 1.213-1.213h30.128zm-18.928-9.7c.67 0 1.214.543 1.214 1.213v2.425c0 .67-.543 1.213-1.214 1.213h-42.75c-.67 0-1.214-.543-1.214-1.213v-2.425c0-.67.543-1.213 1.213-1.213h42.751zm28.845-9.7c.67 0 1.213.543 1.213 1.213v2.425c0 .67-.543 1.213-1.213 1.213h-71.596c-.67 0-1.213-.543-1.213-1.213v-2.425c0-.67.543-1.213 1.213-1.213H432zm-11.214 82.45c.67 0 1.213.543 1.213 1.213v2.425c0 .67-.543 1.212-1.213 1.212h-60.382c-.67 0-1.213-.542-1.213-1.212V281.3c0-.67.543-1.213 1.213-1.213h60.382zm-17.63-9.7c.67 0 1.213.543 1.213 1.213v2.425c0 .67-.543 1.213-1.214 1.213h-42.75c-.67 0-1.214-.543-1.214-1.213V271.6c0-.67.543-1.213 1.213-1.213h42.751zm32.886 0c.67 0 1.214.543 1.214 1.213v2.425c0 .67-.544 1.213-1.214 1.213h-25.885c-.67 0-1.213-.543-1.213-1.213V271.6c0-.67.543-1.213 1.213-1.213h25.885zm-45.3-9.7c.67 0 1.213.543 1.213 1.213v2.425c0 .67-.543 1.213-1.213 1.213h-30.338c-.67 0-1.213-.543-1.213-1.213V261.9c0-.67.543-1.212 1.213-1.212h30.338z" opacity=".5"/><path fill="#F1A06F" d="M145.618 369.813h159.573c2.68 0 4.854 2.17 4.854 4.85v12.125a4.852 4.852 0 01-4.854 4.85H145.618a4.853 4.853 0 01-4.854-4.85v-12.125c0-2.68 2.173-4.85 4.854-4.85z"/><path fill="#F8F9FB" d="M208.554 378.3h33.142c1.25 0 2.262.543 2.262 1.212v2.425c0 .67-1.013 1.213-2.262 1.213h-33.142c-1.25 0-2.262-.543-2.262-1.212v-2.425c0-.67 1.013-1.213 2.262-1.213z" opacity=".3"/><path fill="#032128" fill-rule="nonzero" d="M360.482 119.688v-4.636h.02l2.883 4.636h1.524v-6.925h-1.427v4.646h-.02l-2.892-4.647h-1.515v6.926h1.427zm7.941.126c.57 0 1.055-.129 1.456-.388.402-.258.7-.688.893-1.29h-1.213c-.045.156-.168.303-.369.442-.2.139-.44.208-.718.208-.389 0-.686-.1-.893-.3-.207-.201-.32-.524-.34-.97h3.62a3.524 3.524 0 00-.096-1.116 2.702 2.702 0 00-.442-.95 2.221 2.221 0 00-.781-.665c-.318-.165-.69-.247-1.117-.247-.382 0-.73.068-1.043.203a2.477 2.477 0 00-.811.558 2.448 2.448 0 00-.524.84 2.914 2.914 0 00-.185 1.047c0 .388.06.743.18 1.067.12.323.29.601.51.834.22.233.488.412.805.538.317.126.673.19 1.068.19zm1.058-3.171h-2.242c.006-.097.027-.207.063-.33.036-.123.097-.24.184-.35.088-.11.204-.202.35-.276.145-.074.328-.111.548-.111.337 0 .588.09.753.271.165.181.28.446.344.796zm4.747 3.045l.855-3.366h.02l.892 3.366h1.418l1.582-5.015h-1.417l-.923 3.395h-.019l-.854-3.395h-1.34l-.835 3.405h-.02l-.921-3.405h-1.457l1.592 5.015h1.427zm7.466.126c.285 0 .565-.027.84-.082a2.13 2.13 0 00.733-.286c.213-.136.386-.315.519-.539.133-.223.199-.5.199-.829 0-.233-.045-.428-.136-.587-.09-.158-.21-.29-.36-.397a1.886 1.886 0 00-.509-.257 5.648 5.648 0 00-.587-.165 17.584 17.584 0 00-.573-.126 4.832 4.832 0 01-.5-.131 1.04 1.04 0 01-.354-.19.377.377 0 01-.136-.3c0-.104.026-.186.078-.248a.498.498 0 01.189-.14.8.8 0 01.247-.063c.091-.01.175-.015.253-.015.246 0 .46.047.64.14.182.095.282.274.301.54h1.311c-.026-.311-.105-.568-.238-.772-.133-.204-.3-.367-.5-.49s-.429-.21-.684-.262a3.966 3.966 0 00-.791-.077c-.272 0-.538.024-.796.072-.26.049-.492.133-.7.253-.207.12-.373.282-.5.49-.126.206-.189.471-.189.795 0 .22.046.406.136.558.09.152.21.278.36.378.148.1.318.18.51.242.19.062.386.115.586.16a8.34 8.34 0 011.15.31c.276.104.413.26.413.466a.512.512 0 01-.087.306.677.677 0 01-.218.194 1.08 1.08 0 01-.292.107 1.507 1.507 0 01-.699-.015 1.022 1.022 0 01-.335-.15.752.752 0 01-.33-.645h-1.31c.013.336.089.616.228.839.14.223.317.402.534.538.217.136.464.233.743.291.278.058.563.087.854.087z"/><path fill="#DBE1E2" d="M461.73 63.05c5.697 0 10.315 4.614 10.315 10.306 0 5.692-4.618 10.306-10.315 10.306-5.696 0-10.314-4.614-10.314-10.306 0-5.692 4.618-10.306 10.314-10.306zM200.225 67.9a2.426 2.426 0 012.427 2.425v6.063a2.426 2.426 0 01-2.427 2.424h-72.81a2.425 2.425 0 01-2.426-2.424v-6.063a2.425 2.425 0 012.427-2.425h72.809zm47.326 0a2.426 2.426 0 012.427 2.425v6.063a2.426 2.426 0 01-2.427 2.424h-27.91a2.426 2.426 0 01-2.428-2.424v-6.063a2.426 2.426 0 012.427-2.425h27.91z"/><use fill="#000" filter="url(#prefix__n)" xlink:href="#prefix__o"/><use fill="#FFF" xlink:href="#prefix__o"/><path fill="#DBE1E2" d="M80.09 254.625a2.426 2.426 0 012.427 2.425v4.85a2.426 2.426 0 01-2.427 2.425H65.528a2.426 2.426 0 01-2.427-2.425v-4.85a2.426 2.426 0 012.427-2.425H80.09zm0-24.25a2.426 2.426 0 012.427 2.425v4.85a2.426 2.426 0 01-2.427 2.425H65.528a2.426 2.426 0 01-2.427-2.425v-4.85a2.426 2.426 0 012.427-2.425H80.09zm0-24.25a2.426 2.426 0 012.427 2.425v4.85a2.426 2.426 0 01-2.427 2.425H65.528a2.426 2.426 0 01-2.427-2.425v-4.85a2.426 2.426 0 012.427-2.425H80.09zm0-24.25a2.426 2.426 0 012.427 2.425v4.85a2.426 2.426 0 01-2.427 2.425H65.528a2.426 2.426 0 01-2.427-2.425v-4.85a2.426 2.426 0 012.427-2.425H80.09zm0-24.25a2.426 2.426 0 012.427 2.425v4.85a2.426 2.426 0 01-2.427 2.425H65.528a2.426 2.426 0 01-2.427-2.425v-4.85a2.426 2.426 0 012.427-2.425H80.09zm0-24.25a2.426 2.426 0 012.427 2.425v4.85a2.426 2.426 0 01-2.427 2.425H65.528a2.426 2.426 0 01-2.427-2.425v-4.85a2.426 2.426 0 012.427-2.425H80.09zm0-24.25a2.426 2.426 0 012.427 2.425v4.85a2.426 2.426 0 01-2.427 2.425H65.528a2.426 2.426 0 01-2.427-2.425v-4.85a2.426 2.426 0 012.427-2.425H80.09z"/><path fill="#00B1D0" d="M70.989 65.475h8.494c.335 0 .607.271.607.606v8.488a.606.606 0 01-.607.606H70.99a.606.606 0 01-.607-.606V66.08c0-.335.272-.606.607-.606z"/><path fill="#FE9C65" d="M66.135 70.325h8.494c.335 0 .607.271.607.606v8.488a.606.606 0 01-.607.606h-8.494a.606.606 0 01-.607-.606V70.93c0-.335.272-.606.607-.606z"/><path fill="#F7F9F9" d="M143.191 153.988h165.034a2.426 2.426 0 012.427 2.424v14.55a2.426 2.426 0 01-2.427 2.425H143.19a2.426 2.426 0 01-2.427-2.424v-14.55a2.426 2.426 0 012.427-2.425z"/><path fill="#DBE1E2" d="M245.124 161.262c.67 0 1.213.543 1.213 1.213v2.425c0 .67-.543 1.213-1.213 1.213h-95.866c-.67 0-1.213-.543-1.213-1.213v-2.425c0-.67.543-1.213 1.213-1.213h95.866z"/><path fill="#F7F9F9" d="M143.191 178.238h165.034a2.426 2.426 0 012.427 2.424v14.55a2.426 2.426 0 01-2.427 2.425H143.19a2.426 2.426 0 01-2.427-2.424v-14.55a2.426 2.426 0 012.427-2.425z"/><path fill="#DBE1E2" d="M194.178 185.512c.67 0 1.214.543 1.214 1.213v2.425c0 .67-.544 1.213-1.214 1.213h-44.92c-.67 0-1.213-.543-1.213-1.213v-2.425c0-.67.543-1.213 1.213-1.213h44.92z"/><path fill="#DBE1E2" d="M271.96 185.512c.67 0 1.213.543 1.213 1.213v2.425c0 .67-.543 1.213-1.214 1.213h-66.88c-.67 0-1.214-.543-1.214-1.213v-2.425c0-.67.543-1.213 1.214-1.213h66.88z" opacity=".6"/><path fill="#6A858A" fill-rule="nonzero" d="M143.596 148.041c.32 0 .614-.048.881-.145.267-.097.5-.238.7-.422a2.12 2.12 0 00.48-.67c.121-.261.196-.555.226-.88h-1.107c-.044.35-.164.63-.36.844-.197.214-.47.32-.82.32a1.34 1.34 0 01-.655-.149c-.18-.1-.325-.231-.437-.396a1.73 1.73 0 01-.244-.557 2.835 2.835 0 010-1.298c.051-.214.133-.404.244-.571.112-.168.257-.301.437-.4.18-.1.398-.15.655-.15.141 0 .276.023.404.07a1.157 1.157 0 01.601.48.923.923 0 01.131.36h1.107a2.087 2.087 0 00-.248-.8 1.927 1.927 0 00-.498-.586 2.188 2.188 0 00-.685-.36 2.604 2.604 0 00-.812-.124c-.398 0-.756.07-1.074.21a2.314 2.314 0 00-.804.583 2.587 2.587 0 00-.503.87 3.253 3.253 0 00-.174 1.08c0 .378.058.73.174 1.058.117.328.284.612.503.855.218.242.486.433.804.571.318.138.676.207 1.074.207zm4.078-.021c.233 0 .46-.034.684-.102.223-.068.417-.187.582-.357a1.632 1.632 0 00.073.364h1.049a.869.869 0 01-.102-.35 3.79 3.79 0 01-.03-.487v-1.957c0-.228-.05-.41-.152-.549a1.055 1.055 0 00-.393-.324 1.761 1.761 0 00-.532-.156 4.17 4.17 0 00-.575-.04c-.209 0-.416.02-.623.062-.206.041-.392.11-.557.207-.165.097-.3.226-.407.386a1.19 1.19 0 00-.182.604h1.034c.019-.204.087-.35.203-.437.117-.087.277-.13.481-.13.092 0 .178.005.258.017.08.012.15.037.212.073.06.036.109.087.145.153a.539.539 0 01.055.265c.005.107-.027.188-.095.244a.692.692 0 01-.277.127 2.69 2.69 0 01-.4.066c-.15.014-.303.034-.459.058-.155.024-.31.057-.462.098a1.29 1.29 0 00-.408.186.943.943 0 00-.291.33 1.104 1.104 0 00-.113.528c0 .194.033.362.098.502.066.14.157.257.274.35.116.092.252.16.407.203.156.044.323.066.503.066zm.386-.684c-.083 0-.163-.008-.24-.022a.61.61 0 01-.205-.076.4.4 0 01-.138-.15.482.482 0 01-.05-.232c0-.097.016-.177.05-.24a.457.457 0 01.135-.157.68.68 0 01.196-.098c.076-.024.152-.044.23-.058.082-.015.165-.027.247-.037.083-.01.162-.022.237-.036.075-.015.145-.033.211-.055a.462.462 0 00.164-.09v.385a2 2 0 01-.018.233.78.78 0 01-.099.287.68.68 0 01-.247.244c-.112.068-.27.102-.473.102zm4.135.625c.102 0 .206-.002.313-.007.107-.005.204-.014.291-.029v-.8a1.407 1.407 0 01-.32.029c-.175 0-.291-.03-.35-.087-.058-.059-.087-.175-.087-.35v-1.862h.757v-.691h-.757v-1.128h-1.034v1.128h-.626v.691h.626v2.219a.96.96 0 00.095.458c.063.117.15.206.258.27.11.062.236.105.379.127.143.021.295.032.455.032zm2.84.059c.427 0 .79-.097 1.092-.291.3-.194.524-.517.67-.968h-.91c-.035.116-.127.227-.277.331a.923.923 0 01-.539.156c-.291 0-.515-.075-.67-.225-.155-.15-.24-.393-.255-.728h2.716c.02-.29-.005-.57-.073-.836a2.04 2.04 0 00-.331-.713 1.67 1.67 0 00-.586-.499 1.8 1.8 0 00-.837-.185c-.287 0-.548.05-.783.153a1.848 1.848 0 00-.608.418c-.17.177-.301.387-.393.63a2.193 2.193 0 00-.139.785c0 .291.045.558.135.8.09.243.217.451.382.626s.367.31.605.404c.238.094.505.142.8.142zm.793-2.38h-1.682c.005-.072.021-.155.048-.247a.737.737 0 01.138-.262.797.797 0 01.262-.207.898.898 0 01.411-.084c.253 0 .441.068.565.204.124.136.21.335.258.597zm3.313 3.704c.432 0 .777-.059 1.034-.175.257-.116.454-.258.59-.426.136-.167.224-.348.265-.542.042-.194.062-.366.062-.516v-3.521h-.983v.502h-.014a1.125 1.125 0 00-.47-.466 1.457 1.457 0 00-.651-.138c-.263 0-.494.05-.696.153-.201.102-.37.239-.506.41a1.862 1.862 0 00-.31.597c-.07.226-.105.46-.105.702 0 .257.03.501.091.732.06.23.157.431.288.603.13.173.298.308.502.408.204.1.447.149.728.149.228 0 .446-.047.652-.142.206-.095.365-.241.477-.44h.014v.495c.005.266-.06.487-.193.662-.133.174-.345.262-.637.262-.184 0-.347-.038-.487-.113-.141-.075-.236-.21-.284-.404h-1.027c.015.213.074.396.178.55.105.152.236.277.394.374.157.097.332.168.524.215.191.046.38.069.564.069zm.087-2.307a.74.74 0 01-.4-.101.82.82 0 01-.259-.262 1.114 1.114 0 01-.138-.36 2.035 2.035 0 01-.04-.404c0-.14.016-.275.047-.404.032-.128.083-.242.153-.342.07-.1.158-.178.262-.236a.754.754 0 01.375-.088c.17 0 .311.032.423.095a.767.767 0 01.27.255c.067.106.116.229.145.367.029.138.043.285.043.44 0 .136-.018.266-.054.39a1.041 1.041 0 01-.164.33.805.805 0 01-.663.32zm4.522.983c.296 0 .564-.047.804-.139a1.72 1.72 0 00.616-.396c.17-.172.3-.38.393-.622.092-.243.138-.514.138-.815 0-.3-.046-.573-.138-.818-.092-.245-.223-.454-.393-.626s-.375-.306-.616-.4a2.168 2.168 0 00-.804-.142c-.296 0-.563.047-.801.142a1.757 1.757 0 00-.612.4c-.17.172-.3.38-.393.626a2.309 2.309 0 00-.138.818c0 .3.046.572.138.815.092.242.223.45.393.622s.374.304.612.396c.238.093.505.139.8.139zm0-.772a.867.867 0 01-.437-.101.796.796 0 01-.28-.273 1.205 1.205 0 01-.15-.386 2.273 2.273 0 010-.884c.03-.145.08-.274.15-.385a.822.822 0 01.28-.273c.116-.07.262-.106.437-.106s.321.036.44.106c.12.07.214.161.284.273.07.111.12.24.15.385a2.273 2.273 0 010 .884c-.03.143-.08.272-.15.386a.783.783 0 01-.284.273.884.884 0 01-.44.101zm3.655.677v-1.695c0-.17.017-.327.05-.473.035-.145.092-.273.172-.382a.833.833 0 01.317-.258c.13-.063.29-.095.48-.095a1.934 1.934 0 01.372.037v-.96a.787.787 0 00-.226-.037c-.131 0-.257.02-.379.058a1.417 1.417 0 00-.342.164 1.294 1.294 0 00-.481.578h-.014v-.698h-.983v3.761h1.034zm2.359 1.317c.354 0 .63-.066.83-.197.199-.13.354-.349.466-.654l1.573-4.227h-1.07l-.823 2.575h-.015l-.852-2.575h-1.1l1.319 3.528c.029.073.043.15.043.233a.521.521 0 01-.098.306.404.404 0 01-.302.16 2.234 2.234 0 01-.306-.008l-.299-.029v.851c.107.01.213.019.317.026.105.007.21.01.317.01z"/><path fill="#00AFCC" d="M143.191 345.563h4.854a2.426 2.426 0 012.427 2.425v4.85a2.426 2.426 0 01-2.427 2.424h-4.854a2.426 2.426 0 01-2.427-2.425v-4.85a2.426 2.426 0 012.427-2.425z"/><path fill="#FFF" d="M142.82 350.442a.607.607 0 01.858 0l1.288 1.286 3.003-3a.605.605 0 01.858 0 .604.604 0 010 .856l-3.432 3.43a.608.608 0 01-.859 0l-1.716-1.715a.605.605 0 010-.857z"/><path fill="#DBE1E2" d="M189.303 347.988c.67 0 1.214.542 1.214 1.212v2.425c0 .67-.543 1.212-1.214 1.212H156.54c-.67 0-1.213-.542-1.213-1.212V349.2c0-.67.543-1.212 1.213-1.212h32.764z"/><path fill="#DBE1E2" d="M269.393 347.988c.67 0 1.214.542 1.214 1.212v2.425c0 .67-.544 1.212-1.214 1.212h-70.382c-.67 0-1.213-.542-1.213-1.212V349.2c0-.67.543-1.212 1.213-1.212h70.382z" opacity=".5"/><path fill="#F7F9F9" d="M143.191 316.462h75.236a2.426 2.426 0 012.427 2.425v14.55a2.426 2.426 0 01-2.427 2.425h-75.236a2.426 2.426 0 01-2.427-2.425v-14.55a2.426 2.426 0 012.427-2.425z"/><path fill="#DBE1E2" d="M174.742 323.738c.67 0 1.213.542 1.213 1.212v2.425c0 .67-.543 1.212-1.213 1.212h-25.484c-.67 0-1.213-.542-1.213-1.212v-2.425c0-.67.543-1.212 1.213-1.212h25.484z"/><text fill="#6A858A" font-family="HelveticaNeue-Bold, Helvetica Neue" font-size="6" font-weight="bold"><tspan x="140.764" y="309.869">Min</tspan></text><path fill="#F7F9F9" d="M232.989 316.462h75.236a2.426 2.426 0 012.427 2.425v14.55a2.426 2.426 0 01-2.427 2.425h-75.236a2.426 2.426 0 01-2.427-2.425v-14.55a2.426 2.426 0 012.427-2.425z"/><path fill="#DBE1E2" d="M264.54 323.738c.67 0 1.213.542 1.213 1.212v2.425c0 .67-.543 1.212-1.214 1.212h-25.483c-.67 0-1.213-.542-1.213-1.212v-2.425c0-.67.543-1.212 1.213-1.212h25.483z" opacity=".5"/><text fill="#6A858A" font-family="HelveticaNeue-Bold, Helvetica Neue" font-size="6" font-weight="bold"><tspan x="231.775" y="309.869">Max</tspan></text><path fill="#F7F9F9" d="M143.191 220.675h165.034a2.426 2.426 0 012.427 2.425V291a2.426 2.426 0 01-2.427 2.425H143.19a2.426 2.426 0 01-2.427-2.425v-67.9a2.426 2.426 0 012.427-2.425z"/><path fill="#DBE1E2" d="M177.169 278.875c.67 0 1.213.543 1.213 1.212v2.425c0 .67-.543 1.213-1.213 1.213h-25.484c-.67 0-1.213-.543-1.213-1.213v-2.425c0-.67.543-1.212 1.213-1.212h25.484zm44.407 0c.67 0 1.213.543 1.213 1.212v2.425c0 .67-.543 1.213-1.213 1.213h-38.34c-.67 0-1.214-.543-1.214-1.213v-2.425c0-.67.544-1.212 1.214-1.212h38.34zm28.38-9.7c.67 0 1.214.543 1.214 1.212v2.425c0 .67-.544 1.213-1.214 1.213h-98.27c-.67 0-1.214-.543-1.214-1.212v-2.425c0-.67.543-1.213 1.213-1.213h98.271zm-16.787-9.7c.57 0 1.033.543 1.033 1.212v2.425c0 .67-.463 1.213-1.033 1.213h-81.663c-.571 0-1.034-.543-1.034-1.212v-2.425c0-.67.463-1.213 1.034-1.213h81.663zm-56-9.7c.67 0 1.213.543 1.213 1.213v2.424c0 .67-.543 1.213-1.213 1.213h-25.484c-.67 0-1.213-.543-1.213-1.213v-2.424c0-.67.543-1.213 1.213-1.213h25.484zm40.127 0c.67 0 1.214.543 1.214 1.213v2.424c0 .67-.543 1.213-1.214 1.213h-34.06c-.67 0-1.214-.543-1.214-1.213v-2.424c0-.67.544-1.213 1.214-1.213h34.06zm-5.974-9.7c.67 0 1.214.543 1.214 1.213v2.424c0 .67-.544 1.213-1.214 1.213h-59.637c-.67 0-1.213-.543-1.213-1.213v-2.424c0-.67.543-1.213 1.213-1.213h59.637zm36.229-9.7c.67 0 1.213.543 1.213 1.213v2.424c0 .67-.543 1.213-1.213 1.213h-95.866c-.67 0-1.213-.543-1.213-1.213v-2.424c0-.67.543-1.213 1.213-1.213h95.866z"/><path fill="#6A858A" fill-rule="nonzero" d="M143.509 214.613c.398 0 .744-.067 1.037-.2.294-.134.54-.317.736-.55.196-.233.343-.51.44-.83a3.59 3.59 0 00.146-1.047c0-.431-.06-.807-.178-1.127a2.217 2.217 0 00-.496-.8 1.996 1.996 0 00-.75-.48c-.288-.108-.6-.16-.935-.16h-2.243v5.194h2.243zm-.08-.96h-1.02v-3.275h.816c.282 0 .518.04.71.12.192.08.346.196.462.346.117.15.2.331.251.542.051.211.077.447.077.71 0 .285-.037.528-.11.727-.072.199-.17.36-.29.484-.122.123-.26.212-.416.265-.155.054-.315.08-.48.08zm4.863 1.054c.428 0 .792-.097 1.093-.29.3-.195.524-.517.67-.969h-.91c-.035.117-.127.227-.277.332a.924.924 0 01-.54.156c-.29 0-.514-.075-.669-.226-.155-.15-.24-.392-.255-.727h2.716c.02-.291-.005-.57-.073-.837a2.056 2.056 0 00-.331-.713c-.153-.208-.348-.374-.586-.498s-.517-.186-.838-.186c-.286 0-.547.051-.782.153a1.832 1.832 0 00-1.001 1.048 2.173 2.173 0 00-.139.786c0 .29.045.557.135.8.09.242.217.45.382.625s.367.31.605.404c.237.095.504.142.8.142zm.794-2.379h-1.682c.005-.073.02-.155.048-.247a.763.763 0 01.4-.469.898.898 0 01.411-.084c.253 0 .44.068.565.204.123.135.21.334.258.596zm3.233 2.38c.213 0 .423-.022.63-.063.206-.041.39-.113.55-.214.16-.102.29-.237.389-.404.1-.167.15-.375.15-.622a.873.873 0 00-.103-.44.921.921 0 00-.27-.299 1.404 1.404 0 00-.381-.192 4.339 4.339 0 00-.44-.124c-.147-.034-.29-.065-.43-.095a3.156 3.156 0 01-.375-.098.76.76 0 01-.266-.142.282.282 0 01-.102-.225c0-.078.02-.14.058-.186a.38.38 0 01.142-.105.635.635 0 01.186-.047 1.6 1.6 0 01.189-.011c.184 0 .345.035.48.105.136.07.212.205.226.404h.983a1.249 1.249 0 00-.178-.579 1.193 1.193 0 00-.375-.367 1.556 1.556 0 00-.513-.196 2.905 2.905 0 00-.594-.059c-.204 0-.403.019-.597.055-.194.036-.369.1-.524.19-.155.089-.28.211-.375.367-.095.155-.142.354-.142.596 0 .165.034.304.102.418a.882.882 0 00.27.284c.11.075.238.136.382.182.143.046.29.086.44.12.369.078.657.155.863.233.206.077.31.194.31.35a.384.384 0 01-.066.228.51.51 0 01-.164.146.792.792 0 01-.219.08 1.198 1.198 0 01-.524-.011.766.766 0 01-.251-.113.569.569 0 01-.248-.484h-.982c.01.253.066.462.17.63.105.167.239.301.401.403.163.102.348.175.557.219.209.043.422.065.64.065zm4.106 0c.5 0 .91-.132 1.23-.394.321-.262.515-.642.583-1.142h-.997a.987.987 0 01-.251.557c-.134.138-.324.207-.572.207a.723.723 0 01-.408-.11.81.81 0 01-.266-.28 1.273 1.273 0 01-.141-.381 1.986 1.986 0 010-.84c.029-.144.078-.275.149-.393a.876.876 0 01.273-.291.719.719 0 01.415-.113c.442 0 .696.216.764.647h1.012c-.014-.242-.072-.452-.174-.629s-.235-.325-.397-.444a1.712 1.712 0 00-.554-.265 2.362 2.362 0 00-.644-.088c-.306 0-.578.051-.815.153-.238.102-.44.244-.605.426-.165.182-.29.398-.375.647-.085.25-.127.52-.127.811 0 .282.046.54.138.775a1.708 1.708 0 00.986 1.004c.236.095.495.142.776.142zm3.43-.095v-1.696c0-.17.017-.327.05-.472a1.05 1.05 0 01.172-.382c.08-.11.185-.196.316-.259s.292-.094.48-.094a1.897 1.897 0 01.372.036v-.96a.817.817 0 00-.225-.037c-.132 0-.258.02-.38.059a1.37 1.37 0 00-.341.163 1.276 1.276 0 00-.481.579h-.014v-.699h-.983v3.762h1.034zm2.861-4.344v-.85h-1.034v.85h1.034zm0 4.344v-3.762h-1.034v3.762h1.034zm1.85 1.316v-1.782h.014c.126.184.287.324.484.418.197.095.411.142.644.142.277 0 .519-.053.725-.16.206-.107.378-.25.517-.43a1.87 1.87 0 00.31-.618 2.61 2.61 0 00.101-.727c0-.267-.034-.523-.102-.768a1.854 1.854 0 00-.313-.643 1.56 1.56 0 00-.531-.444 1.63 1.63 0 00-.765-.168c-.233 0-.446.047-.64.139-.195.092-.355.24-.481.443h-.015v-.48h-.983v5.078h1.034zm.866-1.993a.828.828 0 01-.423-.102.818.818 0 01-.28-.265 1.177 1.177 0 01-.153-.382 2.226 2.226 0 01-.003-.895c.029-.146.078-.274.149-.386a.85.85 0 01.277-.273.8.8 0 01.425-.105c.165 0 .305.035.42.105.113.07.207.163.28.277.072.114.124.244.156.389a2.273 2.273 0 01.004.888 1.13 1.13 0 01-.15.382.824.824 0 01-.276.265.82.82 0 01-.426.102zm4.012.713c.101 0 .206-.003.313-.007.106-.005.203-.015.29-.03v-.8a1.388 1.388 0 01-.32.029c-.174 0-.29-.029-.349-.087-.058-.058-.087-.175-.087-.35v-1.862h.757v-.69h-.757v-1.128h-1.034v1.127h-.626v.691h.626v2.22c0 .188.031.341.094.458.063.116.15.206.259.269.11.063.235.105.378.127.144.022.295.033.456.033zm2.162-4.38v-.85h-1.034v.85h1.034zm0 4.344v-3.762h-1.034v3.762h1.034zm2.643.094c.296 0 .564-.046.804-.138.24-.092.446-.224.616-.397.17-.172.3-.38.393-.622.092-.242.138-.514.138-.814 0-.301-.046-.574-.138-.819a1.764 1.764 0 00-.393-.626 1.76 1.76 0 00-.616-.4 2.188 2.188 0 00-.804-.142c-.296 0-.563.048-.801.142a1.771 1.771 0 00-.612.4c-.17.173-.3.381-.393.626a2.315 2.315 0 00-.138.819c0 .3.046.572.138.814a1.71 1.71 0 001.005 1.019c.238.092.505.138.8.138zm0-.771a.856.856 0 01-.437-.102.796.796 0 01-.28-.273 1.199 1.199 0 01-.15-.385 2.266 2.266 0 010-.884c.03-.146.08-.274.15-.386a.85.85 0 01.28-.273c.117-.07.262-.105.437-.105s.321.035.44.105c.12.07.214.162.284.273.07.112.12.24.15.386a2.258 2.258 0 010 .884c-.03.143-.08.271-.15.385a.783.783 0 01-.284.273.873.873 0 01-.44.102zm3.655.677v-1.972c0-.383.063-.658.19-.826.125-.167.33-.25.61-.25.248 0 .42.076.518.228.097.153.145.385.145.695v2.125h1.034v-2.314c0-.233-.02-.445-.062-.637-.04-.191-.112-.354-.214-.487s-.242-.238-.42-.313a1.75 1.75 0 00-.68-.113c-.218 0-.432.05-.64.15-.21.099-.38.258-.51.476h-.022v-.524h-.983v3.762h1.034z"/></g></svg>